./record.py: 5: ./record.py: import: not found
./record.py: 6: ./record.py: import: not found
./record.py: 7: ./record.py: import: not found
./record.py: 8: ./record.py: import: not found
./record.py: 9: ./record.py: import: not found
./record.py: 10: ./record.py: import: not found
./record.py: 11: ./record.py: import: not found
./record.py: 12: ./record.py: import: not found
./record.py: 13: ./record.py: import: not found
./record.py: 17: ./record.py: class: not found
./record.py: 18: ./record.py: Syntax error: "(" unexpected
ffmpeg version 3.4.6-0ubuntu0.18.04.1 Copyright (c) 2000-2019 the FFmpeg developers
  built with gcc 7 (Ubuntu 7.3.0-16ubuntu3)
  configuration: --prefix=/usr --extra-version=0ubuntu0.18.04.1 --toolchain=hardened --libdir=/usr/lib/x86_64-linux-gnu --incdir=/usr/include/x86_64-linux-gnu --enable-gpl --disable-stripping --enable-avresample --enable-avisynth --enable-gnutls --enable-ladspa --enable-libass --enable-libbluray --enable-libbs2b --enable-libcaca --enable-libcdio --enable-libflite --enable-libfontconfig --enable-libfreetype --enable-libfribidi --enable-libgme --enable-libgsm --enable-libmp3lame --enable-libmysofa --enable-libopenjpeg --enable-libopenmpt --enable-libopus --enable-libpulse --enable-librubberband --enable-librsvg --enable-libshine --enable-libsnappy --enable-libsoxr --enable-libspeex --enable-libssh --enable-libtheora --enable-libtwolame --enable-libvorbis --enable-libvpx --enable-libwavpack --enable-libwebp --enable-libx265 --enable-libxml2 --enable-libxvid --enable-libzmq --enable-libzvbi --enable-omx --enable-openal --enable-opengl --enable-sdl2 --enable-libdc1394 --enable-libdrm --enable-libiec61883 --enable-chromaprint --enable-frei0r --enable-libopencv --enable-libx264 --enable-shared
  libavutil      55. 78.100 / 55. 78.100
  libavcodec     57.107.100 / 57.107.100
  libavformat    57. 83.100 / 57. 83.100
  libavdevice    57. 10.100 / 57. 10.100
  libavfilter     6.107.100 /  6.107.100
  libavresample   3.  7.  0 /  3.  7.  0
  libswscale      4.  8.100 /  4.  8.100
  libswresample   2.  9.100 /  2.  9.100
  libpostproc    54.  7.100 / 54.  7.100
Input #0, mpegts, from '/root/projects/record/recorded/lennytubby/Solaaaa_2020-05-01_20h31m00s.mp4':
  Duration: 00:04:32.02, start: 13220.020000, bitrate: 251 kb/s
  Program 1 
    Stream #0:0[0x100]: Audio: aac (LC) ([15][0][0][0] / 0x000F), 48000 Hz, mono, fltp, 27 kb/s
    Stream #0:1[0x101]: Video: h264 (Main) ([27][0][0][0] / 0x001B), yuv420p(tv, unknown/bt470bg/unknown, progressive), 284x160, 25 fps, 25 tbr, 90k tbn, 2k tbc
    Stream #0:2[0x102]: Data: timed_id3 (ID3  / 0x20334449)
Output #0, mp4, to '/root/projects/record/processed/lennytubby/Solaaaa_2020-05-01_20h31m00s.mp4':
  Metadata:
    encoder         : Lavf57.83.100
    Stream #0:0: Video: h264 (Main) (avc1 / 0x31637661), yuv420p(tv, unknown/bt470bg/unknown, progressive), 284x160, q=2-31, 25 fps, 25 tbr, 90k tbn, 90k tbc
    Stream #0:1: Audio: aac (LC) (mp4a / 0x6134706D), 48000 Hz, mono, fltp, 27 kb/s
Stream mapping:
  Stream #0:1 -> #0:0 (copy)
  Stream #0:0 -> #0:1 (copy)
Press [q] to stop, [?] for help
frame= 6800 fps=0.0 q=-1.0 Lsize=    7044kB time=00:04:31.99 bitrate= 212.2kbits/s speed=1.8e+03x    
video:6044kB audio:884kB subtitle:0kB other streams:0kB global headers:0kB muxing overhead: 1.683550%
